<?xml version="1.0" encoding="UTF-8" standalone="no"?>
<svg
   version="1.1"
   x="0px"
   y="0px"
   width="63.998474"
   height="67.998863"
   viewBox="0 0 63.998474 67.998863"
   xml:space="preserve"
   id="svg2"
   inkscape:version="1.1.1 (3bf5ae0d25, 2021-09-20, custom)"
   sodipodi:docname="false.svg"
   xmlns:inkscape="http://www.inkscape.org/namespaces/inkscape"
   xmlns:sodipodi="http://sodipodi.sourceforge.net/DTD/sodipodi-0.dtd"
   xmlns="http://www.w3.org/2000/svg"
   xmlns:svg="http://www.w3.org/2000/svg"
   xmlns:rdf="http://www.w3.org/1999/02/22-rdf-syntax-ns#"
   xmlns:cc="http://creativecommons.org/ns#"
   xmlns:dc="http://purl.org/dc/elements/1.1/"><metadata
     id="metadata12"><rdf:RDF><cc:Work
         rdf:about=""><dc:format>image/svg+xml</dc:format><dc:type
           rdf:resource="http://purl.org/dc/dcmitype/StillImage" /></cc:Work></rdf:RDF></metadata><defs
     id="defs10" /><sodipodi:namedview
     pagecolor="#ffffff"
     bordercolor="#666666"
     borderopacity="1"
     objecttolerance="10"
     gridtolerance="10"
     guidetolerance="10"
     inkscape:pageopacity="0"
     inkscape:pageshadow="2"
     inkscape:window-width="1277"
     inkscape:window-height="712"
     id="namedview8"
     showgrid="false"
     inkscape:zoom="6.7501609"
     inkscape:cx="31.999237"
     inkscape:cy="33.999189"
     inkscape:window-x="26"
     inkscape:window-y="23"
     inkscape:window-maximized="0"
     inkscape:current-layer="svg2"
     fit-margin-top="0"
     fit-margin-left="0"
     fit-margin-right="0"
     fit-margin-bottom="0"
     inkscape:pagecheckerboard="0" /><g
     id="Captions"
     transform="translate(-18.000332,-15.999774)" /><path
     style="fill:#bebebe;fill-opacity:1;fill-rule:evenodd;stroke-width:0.781269"
     inkscape:connector-curvature="0"
     id="path6"
     d="m 32.002681,42.294769 16.18398,16.567582 c 1.623476,1.675822 2.67897,1.692228 4.332916,0 l 3.246952,-3.325079 c 1.589882,-1.628164 1.698478,-2.696158 0,-4.436043 L 38.633308,33.56331 55.76731,16.024611 c 1.605507,-1.647696 1.635977,-2.760222 0,-4.437606 L 52.520358,8.263488 c -1.684415,-1.7242598 -2.725065,-1.6445704 -4.332916,0 L 32.002681,24.831852 15.819482,8.263488 c -1.608632,-1.6445704 -2.649282,-1.7242598 -4.333697,0 l -3.2453899,3.323517 c -1.6375391,1.676602 -1.6086322,2.789129 0,4.437606 L 25.372835,33.56331 8.2403951,51.101229 c -1.6984781,1.739885 -1.6086322,2.807879 0,4.436043 l 3.2453899,3.325079 c 1.639102,1.692228 2.694595,1.675822 4.333697,0 z" /></svg>
