<?xml version="1.0" encoding="UTF-8" standalone="no"?>
<svg
   xmlns:dc="http://purl.org/dc/elements/1.1/"
   xmlns:cc="http://creativecommons.org/ns#"
   xmlns:rdf="http://www.w3.org/1999/02/22-rdf-syntax-ns#"
   xmlns:svg="http://www.w3.org/2000/svg"
   xmlns="http://www.w3.org/2000/svg"
   xmlns:sodipodi="http://sodipodi.sourceforge.net/DTD/sodipodi-0.dtd"
   xmlns:inkscape="http://www.inkscape.org/namespaces/inkscape"
   width="16.023"
   height="16"
   version="1.1"
   id="svg185"
   sodipodi:docname="overview.svg"
   inkscape:version="1.0.2-2 (e86c870879, 2021-01-15)">
  <metadata
     id="metadata191">
    <rdf:RDF>
      <cc:Work
         rdf:about="">
        <dc:format>image/svg+xml</dc:format>
        <dc:type
           rdf:resource="http://purl.org/dc/dcmitype/StillImage" />
      </cc:Work>
    </rdf:RDF>
  </metadata>
  <defs
     id="defs189" />
  <sodipodi:namedview
     pagecolor="#ffffff"
     bordercolor="#666666"
     borderopacity="1"
     objecttolerance="10"
     gridtolerance="10"
     guidetolerance="10"
     inkscape:pageopacity="0"
     inkscape:pageshadow="2"
     inkscape:window-width="1920"
     inkscape:window-height="1017"
     id="namedview187"
     showgrid="false"
     inkscape:zoom="53.125"
     inkscape:cx="8.0115004"
     inkscape:cy="8"
     inkscape:window-x="-8"
     inkscape:window-y="-8"
     inkscape:window-maximized="1"
     inkscape:current-layer="svg185" />
  <path
     d="M 2.996,4.986 A 1,1 0 0 0 2.012,6 v 7 a 1,1 0 0 0 1,1 h 10 a 1,1 0 0 0 1,-1 V 6 a 1,1 0 1 0 -2,0 v 6 h -8 V 6 A 1,1 0 0 0 2.996,4.986 Z"
     style="line-height:normal;font-variant-ligatures:normal;font-variant-position:normal;font-variant-caps:normal;font-variant-numeric:normal;font-variant-alternates:normal;font-feature-settings:normal;text-indent:0;text-align:start;text-decoration:none;text-decoration-line:none;text-decoration-style:solid;text-decoration-color:#000000;text-transform:none;text-orientation:mixed;shape-padding:0;isolation:auto;mix-blend-mode:normal;fill:#474747"
     color="#000000"
     font-weight="400"
     font-family="sans-serif"
     overflow="visible"
     id="path175" />
  <path
     d="M 8.031,1 A 1,1 0 0 0 7.43,1.186 l -7,5 a 1.0000785,1.0000785 0 1 0 1.162,1.628 l 6.42,-4.585 6.418,4.585 a 1.0000785,1.0000785 0 1 0 1.162,-1.628 l -7,-5 A 1,1 0 0 0 8.032,1 Z"
     style="line-height:normal;font-variant-ligatures:normal;font-variant-position:normal;font-variant-caps:normal;font-variant-numeric:normal;font-variant-alternates:normal;font-feature-settings:normal;text-indent:0;text-align:start;text-decoration:none;text-decoration-line:none;text-decoration-style:solid;text-decoration-color:#000000;text-transform:none;text-orientation:mixed;shape-padding:0;isolation:auto;mix-blend-mode:normal;fill:#474747"
     color="#000000"
     font-weight="400"
     font-family="sans-serif"
     overflow="visible"
     id="path177" />
  <path
     d="m 6.012,8 h 3 v 6 h -3 z"
     style="fill:#474747;marker:none"
     color="#bebebe"
     overflow="visible"
     id="path179" />
  <path
     d="m 15.512,7 a 0.5,0.5 0 1 0 0,1 0.5,0.5 0 1 0 0,-1 z m -15,0 a 0.5,0.5 0 1 0 0,1 0.5,0.5 0 1 0 0,-1 z"
     id="path181"
     style="fill:#474747" />
</svg>
